<?xml version="1.0" standalone="no"?>
<!DOCTYPE svg PUBLIC "-//W3C//DTD SVG 20010904//EN"
 "http://www.w3.org/TR/2001/REC-SVG-20010904/DTD/svg10.dtd">
<svg version="1.0" xmlns="http://www.w3.org/2000/svg"
 width="201.000000pt" height="201.000000pt" viewBox="0 0 201.000000 201.000000"
 preserveAspectRatio="xMidYMid meet">
<metadata>
Created by potrace 1.11, written by Peter Selinger 2001-2013
</metadata>
<g transform="translate(0.000000,201.000000) scale(0.100000,-0.100000)"
fill="#000000" stroke="none">
<path d="M1436 1622 c-3 -5 27 -52 67 -105 60 -78 157 -240 157 -259 0 -3 -34
12 -76 34 -119 63 -193 90 -224 83 -38 -8 -85 -77 -71 -104 12 -21 9 -20 160
-72 123 -43 163 -62 255 -117 55 -33 60 -34 72 -17 21 28 44 148 44 229 0 66
-3 78 -26 105 -14 17 -30 31 -34 31 -5 0 -10 -33 -12 -72 l-3 -73 -17 39 c-43
94 -153 256 -191 280 -29 19 -93 30 -101 18z"/>
<path d="M1880 1233 c0 -37 -10 -106 -21 -154 l-22 -87 48 -59 c26 -32 51 -59
56 -61 4 -2 13 15 20 37 10 35 9 43 -9 73 l-21 33 41 42 c37 37 40 45 34 77
-8 39 -17 44 -36 20 -8 -8 -21 -19 -31 -25 -17 -9 -18 -5 -12 55 5 51 2 71
-11 91 -27 40 -36 30 -36 -42z"/>
<path d="M1123 1049 c-30 -9 -133 -116 -133 -138 0 -25 40 -35 158 -43 70 -4
163 -14 207 -21 l80 -13 -50 -23 c-398 -180 -874 -311 -1240 -341 -94 -7 -122
-13 -132 -27 -26 -34 23 -48 207 -59 181 -10 470 29 680 92 162 49 294 101
433 170 49 25 91 43 94 40 3 -3 -58 -68 -136 -144 -77 -77 -141 -144 -141
-151 0 -28 103 -6 162 35 53 37 229 236 311 352 89 126 88 136 -16 180 -159
68 -408 115 -484 91z"/>
<path d="M1760 959 c-9 -22 -10 -33 -2 -41 17 -17 42 9 42 43 0 39 -24 38 -40
-2z"/>
<path d="M1774 852 c-6 -4 -33 -41 -61 -82 -70 -104 -121 -167 -219 -270 -46
-49 -84 -92 -84 -95 0 -3 12 -5 28 -5 22 0 49 22 136 112 l109 113 -33 -65
c-18 -36 -45 -83 -60 -105 -45 -68 -46 -69 -11 -49 55 32 101 92 151 195 l47
98 23 -16 c22 -16 24 -15 47 13 34 43 38 63 16 92 -27 36 -77 72 -89 64z"/>
</g>
</svg>
